<svg fill="currentColor" preserveAspectRatio="xMidYMid meet" xmlns="http://www.w3.org/2000/svg" viewBox="0 0 1536 1536"><path d="M975,1233L974,1231L968,1235L964,1235L939,1245L901,1256L922,1252Z M990,1225L979,1229L979,1231Z M1004,1219L1001,1219L993,1224L996,1224Z M1058,1211L1057,1207L1055,1207L1034,1220L993,1241L940,1261L870,1278L823,1284L745,1285L689,1279L632,1267L590,1254L561,1242L558,1243L558,1246L617,1267L677,1281L741,1289L812,1289L852,1285L914,1273L950,1262L1013,1236Z M1028,1206L1017,1212Z M1150,1122L1152,1125L1152,1122Z M730,1090L727,1105L725,1105L724,1109L713,1110L714,1112L725,1113L730,1132L733,1116L736,1116L739,1112L748,1110L738,1109L736,1107L736,1103L732,1103Z M729,1107L731,1107L734,1111L731,1114L729,1114L726,1110Z M186,987L188,1043L191,1046L365,1154L420,1186L420,1124L398,1099L364,1066L326,1036L301,1020L273,1006L250,997L225,990L205,986Z M195,991L225,995L268,1009L301,1026L340,1052L371,1079L414,1125L413,1174L198,1042L195,1038Z M385,976L397,976L409,982L412,980L415,982L411,985L412,990L420,992L426,988L434,987L435,981L433,975L444,976L450,987L463,991L464,988L460,985L459,978L462,977L469,980L475,977L476,974L472,970L465,969L461,974L453,976L447,973L449,972L450,968L453,970L453,964L451,963L445,964L440,972L434,972L432,970L434,959L421,948L415,947L413,949L406,949L402,952L401,963L404,970L401,973L389,973Z M417,983L421,984L419,989L415,987Z M432,981L431,985L426,985L426,982L429,980Z M413,967L415,973L411,977L407,978L405,974L410,971L408,970L409,967Z M416,968L419,965L424,968L423,971L418,971Z M422,956L429,957L431,964L429,966L424,963L424,960L426,959L421,958Z M413,952L416,949L419,950L421,955L417,955Z M242,951L243,954L254,956L267,953L269,948L288,946L294,950L293,958L290,957L288,951L286,953L288,960L292,963L296,963L303,959L303,954L301,953L302,950L313,953L325,961L327,968L335,968L335,975L342,981L349,981L350,985L352,986L360,985L366,978L376,988L379,996L383,996L390,1003L390,1005L382,1011L383,1021L397,1028L404,1026L410,1020L415,1023L416,1029L411,1033L411,1038L415,1042L421,1044L414,1047L413,1051L418,1054L420,1048L423,1048L421,1063L423,1070L427,1073L430,1064L427,1054L432,1051L432,1047L434,1045L434,1041L430,1038L434,1036L435,1033L451,1034L453,1037L452,1044L459,1050L464,1048L470,1050L473,1048L476,1038L482,1039L485,1047L492,1050L495,1046L493,1038L497,1037L499,1039L506,1039L511,1036L512,1032L504,1028L499,1028L492,1035L485,1034L484,1029L479,1031L478,1034L473,1032L475,1030L475,1024L469,1016L455,1016L452,1019L451,1026L448,1029L433,1027L426,1021L431,1016L431,1010L424,1003L420,1003L413,996L405,997L401,1001L393,999L386,991L383,990L382,985L378,980L381,976L375,974L372,970L373,964L370,962L368,955L363,954L361,951L363,949L363,943L357,940L356,936L358,932L365,930L367,926L368,928L370,926L380,927L387,925L383,915L378,916L376,921L366,924L364,928L355,922L348,927L344,923L352,918L361,921L361,919L356,915L351,915L349,918L345,919L342,925L351,930L352,935L344,937L341,935L335,936L333,938L333,943L329,953L317,951L314,948L306,948L305,943L300,945L296,944L295,938L297,936L305,936L316,930L312,923L297,927L295,933L293,933L287,929L286,924L280,921L272,927L272,930L282,933L285,940L278,943L272,942L269,938L268,940L264,941L262,939L261,942L250,945Z M429,1030L430,1034L424,1039L417,1040L414,1037L416,1032L421,1036L424,1036Z M420,1027L423,1025L425,1026L425,1030Z M469,1023L473,1027L468,1029L467,1025Z M407,1018L407,1020L403,1023L401,1021L394,1023L396,1019L405,1016Z M387,1013L393,1015L394,1017L392,1020L387,1018Z M426,1009L428,1012L426,1018L422,1020L415,1020L412,1016L414,1014L420,1014L421,1009Z M397,1004L402,1004L402,1008L398,1008Z M409,998L412,998L419,1006L416,1012L412,1012L414,1009L409,1003L404,1005Z M360,976L362,979L354,984L352,982L356,977Z M359,971L363,974L359,975Z M350,973L350,977L342,977L344,972Z M342,960L346,960L347,966L343,967L341,965Z M362,957L367,958L367,964L371,967L367,972L361,967L363,962L360,959Z M331,958L332,956L340,957L340,961L336,964Z M349,961L350,955L358,955L352,961Z M356,943L360,944L359,951L356,950Z M343,939L342,942L339,943L338,951L335,951L333,946L337,938Z M346,940L349,937L354,939L351,943L348,943Z M379,919L383,920L384,923L380,926L377,923Z M1274,1117L1273,1114L1261,1116L1257,1114L1268,1106L1268,1099L1265,1098L1259,1101L1257,1108L1249,1117L1231,1125L1221,1127L1219,1124L1226,1122L1231,1116L1230,1109L1222,1106L1219,1109L1218,1121L1209,1131L1203,1129L1190,1136L1173,1141L1170,1140L1170,1138L1166,1138L1164,1141L1155,1143L1151,1141L1151,1139L1160,1130L1158,1118L1148,1113L1142,1115L1137,1114L1132,1123L1132,1129L1136,1134L1136,1137L1131,1144L1122,1145L1116,1154L1108,1157L1095,1157L1095,1152L1089,1153L1087,1159L1082,1157L1086,1150L1086,1145L1082,1138L1071,1137L1067,1139L1060,1131L1046,1131L1053,1123L1060,1128L1069,1128L1073,1124L1076,1115L1084,1114L1089,1111L1089,1097L1085,1093L1080,1092L1081,1083L1086,1073L1104,1061L1104,1059L1099,1061L1096,1060L1101,1052L1110,1052L1110,1055L1114,1060L1122,1061L1129,1054L1133,1054L1138,1050L1138,1048L1134,1051L1128,1050L1126,1046L1130,1036L1134,1036L1138,1039L1136,1034L1141,1025L1139,1019L1135,1015L1127,1014L1128,1010L1138,998L1143,996L1144,994L1142,989L1150,979L1160,976L1170,985L1177,983L1179,973L1174,967L1166,967L1161,972L1157,972L1166,957L1174,949L1182,947L1189,952L1194,952L1198,950L1201,943L1195,935L1187,935L1180,942L1177,940L1183,927L1190,921L1187,909L1180,915L1179,930L1170,948L1163,950L1162,961L1148,978L1142,981L1143,975L1146,972L1146,963L1144,959L1139,957L1129,958L1126,961L1126,971L1128,975L1138,979L1139,989L1136,996L1121,1014L1117,1013L1116,1011L1121,1007L1122,1002L1120,997L1114,994L1107,994L1105,992L1100,994L1100,996L1104,996L1109,1002L1109,1008L1104,1010L1103,1006L1094,1006L1093,1002L1083,998L1076,1003L1075,1011L1078,1019L1075,1022L1073,1029L1077,1037L1087,1040L1087,1046L1091,1051L1091,1059L1088,1062L1085,1071L1080,1076L1077,1077L1075,1075L1067,1075L1058,1081L1055,1078L1046,1077L1042,1082L1038,1082L1035,1077L1029,1076L1021,1084L1016,1079L1012,1065L1013,1046L1015,1043L1014,1040L1010,1039L1009,1027L1013,1020L1021,1019L1024,1016L1025,1008L1020,1003L1015,1003L1010,1010L1007,1009L1006,995L1012,988L1013,981L1012,979L1003,981L1002,972L1000,973L1002,984L1001,991L998,990L997,987L992,987L988,990L988,994L990,997L1000,1000L1003,1006L1006,1022L1005,1025L1003,1025L1007,1034L1005,1044L1007,1047L1006,1056L1009,1061L1007,1066L1003,1062L1004,1057L1001,1049L998,1045L993,1043L982,1046L976,1052L976,1057L978,1060L977,1067L981,1072L990,1073L1002,1066L1011,1074L1010,1081L1003,1087L1003,1098L994,1103L991,1107L992,1117L996,1122L1008,1125L1008,1134L1012,1138L1019,1140L1019,1145L1017,1151L1011,1154L1009,1160L998,1170L992,1170L987,1175L971,1177L962,1182L952,1179L945,1185L935,1185L928,1183L925,1180L913,1179L915,1175L915,1168L922,1152L935,1147L938,1143L938,1136L932,1132L928,1133L923,1138L922,1147L918,1147L919,1139L916,1135L912,1136L909,1139L910,1147L916,1150L916,1156L911,1169L907,1171L907,1176L902,1182L883,1193L879,1194L878,1189L873,1191L869,1201L860,1209L843,1216L842,1218L830,1219L826,1224L824,1233L810,1254L792,1269L743,1269L687,1263L653,1256L613,1245L564,1227L566,1230L577,1235L625,1251L671,1262L707,1268L742,1271L811,1271L844,1268L875,1263L878,1261L836,1267L822,1267L828,1252L844,1236L853,1232L857,1235L867,1235L870,1238L877,1239L879,1247L885,1250L890,1250L895,1244L895,1238L897,1237L896,1233L884,1232L875,1234L861,1228L860,1225L869,1216L901,1197L911,1194L930,1195L937,1203L944,1204L949,1199L965,1202L967,1200L965,1196L959,1197L954,1195L956,1193L993,1182L1005,1185L1011,1180L1017,1178L1035,1179L1039,1177L1042,1178L1043,1184L1046,1188L1057,1190L1060,1189L1066,1181L1072,1181L1073,1183L1080,1182L1086,1175L1087,1165L1094,1165L1098,1167L1100,1172L1109,1170L1111,1172L1109,1176L1102,1179L1099,1178L1101,1181L1111,1180L1114,1176L1113,1170L1108,1164L1102,1167L1100,1165L1101,1162L1121,1160L1121,1150L1125,1147L1131,1147L1135,1152L1134,1155L1132,1155L1132,1163L1130,1165L1142,1173L1141,1179L1137,1182L1133,1181L1132,1179L1128,1179L1129,1182L1133,1185L1137,1185L1143,1181L1148,1184L1152,1184L1156,1182L1157,1178L1165,1171L1165,1161L1160,1158L1160,1156L1154,1159L1151,1155L1151,1148L1153,1146L1162,1148L1178,1142L1189,1144L1195,1137L1222,1130L1229,1135L1229,1142L1231,1146L1236,1150L1242,1150L1248,1140L1246,1132L1239,1129L1230,1131L1229,1127L1252,1120L1260,1121L1265,1126L1271,1125Z M825,1256L819,1264L814,1263L821,1255Z M889,1234L893,1240L888,1246L885,1247L882,1243Z M1153,1172L1155,1177L1153,1180L1147,1181L1144,1178L1145,1172Z M1050,1169L1053,1169L1055,1172L1062,1173L1063,1180L1057,1187L1048,1185L1045,1181L1045,1174Z M1152,1162L1155,1160L1160,1161L1163,1166L1162,1171L1158,1173L1153,1168Z M1075,1160L1083,1167L1082,1176L1080,1176L1077,1180L1071,1180L1066,1176L1065,1171L1068,1168L1071,1168L1072,1162Z M1041,1150L1047,1152L1052,1158L1048,1160L1051,1166L1044,1170L1039,1169L1034,1162L1035,1155Z M1071,1139L1079,1140L1083,1147L1082,1154L1077,1158L1072,1157L1072,1152L1066,1148Z M1043,1139L1043,1149L1038,1150L1033,1155L1034,1170L1017,1175L1010,1175L1008,1172L1010,1169L1020,1161L1025,1153L1038,1140Z M1141,1137L1146,1138L1149,1143L1146,1151L1146,1148L1136,1149L1135,1142Z M931,1136L935,1143L930,1145L929,1143L925,1142L925,1139Z M1057,1133L1064,1140L1063,1147L1055,1147L1053,1151L1050,1151L1046,1146L1046,1138L1054,1133Z M1242,1132L1245,1135L1243,1138L1243,1144L1235,1147L1232,1139L1235,1138L1238,1133Z M1040,1128L1025,1140L1033,1125Z M1015,1118L1019,1122L1024,1119L1027,1120L1029,1124L1029,1129L1023,1136L1014,1136L1010,1131L1010,1123Z M1136,1119L1145,1117L1149,1120L1154,1118L1157,1123L1156,1133L1150,1135L1144,1128L1135,1129Z M1055,1115L1057,1111L1060,1110L1065,1112L1070,1111L1072,1113L1072,1121L1068,1125L1059,1125L1055,1120Z M1220,1111L1225,1109L1228,1111L1229,1115L1226,1117L1221,1114Z M1054,1102L1056,1106L1055,1111L1051,1114L1046,1112L1046,1117L1042,1122L1032,1123L1028,1117L1031,1115L1031,1106L1033,1104L1038,1104L1045,1108L1048,1102Z M1001,1101L1005,1101L1010,1105L1009,1111L1012,1113L1009,1120L1000,1120L996,1116L997,1111L995,1106Z M1077,1095L1084,1096L1087,1104L1086,1109L1079,1113L1074,1112L1071,1109L1072,1106L1075,1106L1075,1096Z M1042,1095L1045,1098L1044,1103L1039,1100L1039,1097Z M1029,1084L1034,1084L1038,1088L1038,1097L1033,1103L1026,1101L1030,1099L1030,1097L1025,1098L1023,1096L1023,1091Z M1012,1082L1019,1086L1020,1089L1019,1095L1013,1098L1011,1102L1006,1098L1004,1088L1007,1083Z M1049,1079L1053,1079L1059,1085L1059,1090L1057,1090L1054,1099L1049,1099L1043,1092L1042,1086Z M1063,1081L1069,1077L1075,1078L1078,1084L1076,1092L1073,1093L1069,1089L1062,1087Z M981,1065L985,1062L990,1062L993,1068L988,1071L983,1069Z M998,1051L995,1055L994,1061L985,1060L979,1057L980,1053L985,1053L986,1050L994,1046Z M1123,1045L1125,1047L1124,1056L1117,1058L1112,1053L1113,1046L1120,1047Z M1101,1032L1105,1031L1109,1035L1107,1039L1111,1044L1108,1048L1102,1047L1098,1043L1098,1037Z M1098,1028L1097,1035L1093,1035L1092,1032Z M1082,1019L1086,1020L1087,1024L1090,1026L1091,1030L1086,1035L1079,1034L1077,1029L1077,1024Z M1126,1018L1133,1017L1135,1019L1138,1027L1135,1032L1129,1032L1127,1025L1122,1024Z M1115,1014L1120,1019L1119,1025L1113,1024L1112,1029L1109,1031L1105,1025L1105,1019L1110,1014Z M1012,1009L1017,1007L1020,1008L1023,1013L1018,1015L1014,1013Z M1086,1000L1091,1003L1091,1009L1086,1012L1087,1015L1085,1018L1078,1012L1079,1005Z M1112,997L1116,997L1119,1002L1115,1007L1112,1007L1111,1005Z M993,989L997,991L995,995L992,992Z M1169,969L1173,969L1175,971L1175,977L1172,982L1167,981Z M1142,961L1144,965L1131,974L1128,966L1133,962Z M1189,937L1195,938L1193,949L1189,949L1187,947L1187,939Z M202,960L202,963L228,966L267,977L298,990L324,1004L351,1022L379,1045L382,1046L379,1043L379,1040L387,1045L400,1064L403,1066L403,1062L406,1063L406,1068L408,1066L428,1086L432,1095L418,1081L430,1097L440,1106L451,1098L451,1096L449,1096L446,1099L443,1097L462,1083L465,1085L455,1093L459,1092L483,1073L480,1073L469,1082L464,1082L493,1060L495,1063L487,1070L509,1053L500,1059L495,1059L509,1048L518,1045L517,1042L523,1038L526,1040L521,1044L526,1042L546,1028L549,1023L533,1003L499,969L456,937L403,910L346,894L323,891L302,891L241,931Z M435,1099L437,1097L443,1101L439,1103Z M374,1035L376,1036L377,1041L373,1038Z M325,1003L327,1001L332,1004L331,1007Z M393,910L395,913L392,912Z M217,957L304,897L322,897L350,901L392,912L393,914L406,918L408,916L411,919L409,920L421,925L422,922L425,923L429,928L434,927L440,932L445,933L442,936L454,944L456,943L454,940L458,941L465,947L469,948L472,952L470,953L473,956L474,952L483,959L485,966L492,972L499,974L498,977L502,975L503,979L501,980L507,980L510,984L509,986L512,986L512,989L515,988L515,990L517,990L525,1001L523,1001L527,1004L528,1008L532,1007L534,1010L532,1012L539,1021L536,1027L499,1052L442,1096L439,1096L425,1079L386,1041L334,1003L300,984L269,971L237,962L217,959Z M601,803L607,800L608,797Z M732,793L729,793L721,800L702,811L652,847L591,888L591,890L677,833Z M633,781L625,784L619,790Z M754,778L740,786L735,791L746,785Z M1331,775L1328,776L1321,832L1311,875L1299,914L1280,962L1240,1035L1219,1065L1185,1106L1187,1107L1191,1106L1209,1085L1242,1040L1269,994L1287,956L1301,921L1318,865L1329,808L1332,781Z M1216,771L1216,780L1214,785L1212,785L1211,789L1203,789L1203,791L1212,793L1212,796L1216,799L1215,803L1218,810L1219,798L1224,792L1228,792L1233,789L1222,788L1222,785L1219,782L1218,771Z M1216,787L1219,787L1220,793L1216,794L1214,790Z M582,768L579,772L584,768Z M1315,758L1313,758L1311,791L1300,854L1289,894L1273,938L1247,993L1229,1023L1195,1070L1171,1096L1172,1100L1209,1056L1236,1016L1250,989L1252,988L1273,944L1284,916L1300,864L1308,825L1310,803L1312,800Z M638,742L617,753L584,775L582,778L593,773Z M693,741L642,773L640,776L635,778L635,780L692,744Z M754,740L732,752L677,789L665,795L615,829L604,840L727,758L754,743Z M710,731L695,740L698,740Z M717,727L713,728L712,730Z M636,725L633,725L628,730L579,763L577,766L601,753Z M941,715L937,718L941,717Z M323,692L321,704L310,707L310,709L319,710L319,713L322,714L323,725L325,725L327,713L330,709L338,709L338,707L331,707L325,698L325,692Z M785,685L778,687L768,695L745,708L745,710L780,690Z M860,674L851,678L783,723L766,732L757,740L794,719L855,679Z M914,655L875,676L840,704L833,707L685,805L680,810L694,803L740,773L818,719L846,702L868,684L896,666L909,660Z M1045,651L1033,656L976,692L980,692L995,682L1001,680Z M897,651L888,655L879,663Z M1049,647L1049,649L1051,647Z M1005,636L997,638L979,651L929,681L884,712L880,713L779,778L729,812L702,834L719,824L779,781L889,712L952,669L991,647Z M1045,632L1040,633L1027,642L975,671L953,685L944,693L987,668L994,662L1004,658L1015,650L1045,634Z M689,624L669,632L667,635L689,626Z M890,583L877,587L874,590L882,588Z M1338,567L1338,569L1341,570L1341,566Z M934,563L904,577L900,577L896,581L919,572L933,565Z M1030,554L1025,556Z M1087,550L1069,557L1059,563L1078,556Z M1111,539L1097,544L1090,549L1104,544Z M1091,537L1034,561L1029,565L1056,555L1063,550L1077,545Z M1124,533L1118,535L1117,537Z M1150,531L1099,555L1106,554L1150,533Z M1085,529L1080,531Z M971,527L963,528L916,548L909,553L926,546L935,546L965,532Z M1167,523L1153,530L1161,528Z M1041,523L942,570L921,578L912,584L918,583L979,556L1006,541L1039,526Z M1005,523L995,527Z M1273,520L1240,533L1261,527L1272,522Z M1044,522L1049,520Z M1249,519L1211,534L1200,541L1224,532L1234,526L1248,521Z M1291,517L1281,521L1280,523L1285,522Z M1140,513L1131,516L1100,533L1138,516Z M1022,507L1015,510Z M1154,506L1143,512L1146,512Z M659,498L659,505L648,511L656,512L659,516L659,522L661,522L662,514L671,509L665,508L661,503L661,498Z M284,488L281,494L283,494Z M1215,477L1210,478L1205,482L1213,480Z M302,457L291,474L292,476Z M310,442L311,444L312,441Z M322,425L315,434L315,438L319,430L322,428Z M1419,483L1400,460L1384,447L1366,436L1329,421L1298,414L1250,411L1225,412L1188,418L1167,427L1154,426L1121,429L1110,437L1106,447L1103,450L971,495L847,544L719,599L629,642L627,645L660,631L711,605L864,540L951,505L1102,453L1105,453L1105,455L1101,458L1050,475L1000,495L996,495L980,503L938,517L785,582L766,593L947,516L1062,474L1069,470L1077,468L1079,471L1043,488L990,507L939,528L918,538L917,540L913,540L875,556L835,576L853,570L892,552L895,549L909,545L968,518L972,518L999,506L1002,509L976,521L973,526L981,524L995,516L1011,511L1010,508L1061,485L1070,479L1120,460L1129,463L1024,506L1029,506L1041,500L1056,496L1141,461L1150,459L1152,464L1096,485L1052,505L1043,507L1038,511L1033,511L1011,520L1009,522L1013,525L993,533L990,536L977,540L964,548L986,540L1000,532L1048,512L1088,492L1162,462L1167,461L1173,465L1123,485L1084,503L1079,507L1075,507L1052,518L1057,518L1058,516L1071,512L1080,506L1084,506L1094,500L1109,495L1140,480L1162,473L1178,465L1190,464L1192,465L1192,468L1125,495L1092,512L1086,513L1040,534L1005,553L964,570L951,578L959,576L966,571L1015,551L1027,544L1044,538L1085,518L1105,511L1112,506L1117,506L1120,503L1133,500L1137,497L1127,500L1125,498L1144,493L1139,496L1141,496L1154,488L1157,488L1162,484L1200,466L1209,470L1206,473L1088,526L1088,528L1143,502L1197,480L1215,470L1220,471L1218,476L1227,473L1232,476L1223,483L1219,483L1205,492L1175,505L1158,516L1238,476L1245,481L1169,522L1197,510L1207,503L1236,490L1248,482L1257,484L1258,488L1159,538L1142,545L1135,550L1164,538L1262,488L1269,489L1274,492L1274,495L1177,539L1168,545L1196,534L1218,522L1278,495L1285,500L1284,503L1265,510L1251,518L1290,502L1301,510L1300,514L1296,516L1304,513L1309,518L1308,521L1290,529L1229,564L1226,563L1225,556L1221,549L1220,540L1214,539L1211,542L1208,551L1202,557L1199,568L1194,574L1195,565L1189,557L1186,545L1183,544L1177,549L1177,555L1169,560L1166,574L1162,577L1160,567L1156,560L1155,550L1149,549L1144,554L1143,561L1135,571L1132,580L1128,581L1122,566L1121,557L1115,554L1112,555L1106,571L1096,582L1092,581L1088,574L1085,560L1077,561L1075,569L1064,585L1062,593L1058,591L1050,566L1044,565L1039,572L1038,579L1030,589L1029,597L1026,598L1018,585L1013,570L1009,570L1005,574L1002,586L994,598L989,601L981,587L980,579L978,576L972,575L967,582L950,592L945,591L943,581L938,579L930,588L916,596L910,597L907,587L902,584L892,593L894,599L891,606L887,610L887,614L879,618L874,609L875,605L881,603L890,596L887,596L873,604L871,602L869,591L861,591L856,597L839,608L833,608L831,602L832,598L865,584L871,583L917,560L914,560L897,566L831,597L825,596L821,598L818,604L798,616L794,615L791,606L793,604L829,590L837,585L823,589L792,603L783,604L779,610L756,625L752,624L749,615L761,608L757,608L750,612L741,613L736,619L711,636L707,634L702,624L699,624L693,631L681,640L691,634L694,636L691,648L678,659L675,659L671,653L666,650L664,640L660,635L657,635L652,640L651,660L635,671L626,661L622,647L617,651L613,650L580,666L340,848L325,848L316,853L310,859L304,876L300,880L215,937L173,970L172,987L176,1062L179,1066L198,1078L198,1091L202,1100L216,1107L225,1104L229,1110L228,1125L222,1129L216,1137L215,1151L217,1157L237,1168L250,1166L262,1157L266,1148L276,1137L280,1126L386,1193L398,1199L401,1202L403,1210L421,1221L426,1232L430,1236L460,1252L463,1255L463,1266L461,1271L455,1274L450,1283L451,1299L455,1303L480,1316L494,1312L507,1302L524,1274L525,1260L523,1256L518,1253L511,1253L512,1245L519,1232L534,1215L537,1201L553,1186L560,1169L579,1160L592,1146L599,1134L605,1112L610,1107L616,1106L630,1092L636,1074L634,1063L639,1058L836,913L1031,779L1175,688L1231,655L1239,652L1245,656L1262,662L1269,662L1276,659L1278,656L1283,656L1287,660L1296,664L1302,664L1312,658L1315,658L1326,665L1332,678L1332,696L1331,698L1323,701L1317,708L1315,724L1318,732L1344,744L1356,742L1367,734L1378,715L1377,697L1370,692L1370,685L1374,670L1388,651L1389,635L1394,630L1399,619L1400,605L1398,593L1400,589L1400,582L1418,570L1421,520L1421,487Z M459,1281L470,1287L472,1290L470,1292L467,1304L456,1296L455,1287L456,1283Z M499,1264L501,1270L499,1272L498,1279L503,1284L497,1291L491,1292L491,1281Z M503,1239L496,1253L492,1241L499,1238Z M478,1224L486,1222L488,1227L485,1229Z M432,1222L438,1225L454,1213L461,1216L462,1223L458,1230L456,1243L434,1231L430,1226Z M508,1210L510,1213L507,1221L503,1222Z M493,1212L489,1221L484,1220L483,1218Z M503,1206L503,1214L499,1219L499,1223L502,1225L493,1231L494,1234L499,1231L502,1233L491,1238L490,1241L485,1240L485,1236L489,1236L488,1230L495,1223L497,1206Z M521,1201L517,1212L514,1212L514,1204L518,1200Z M507,1175L496,1191L499,1203L489,1207L472,1225L469,1232L469,1238L472,1241L476,1241L482,1230L484,1232L484,1237L481,1242L488,1243L494,1254L494,1267L488,1282L489,1293L485,1296L483,1293L485,1288L483,1289L480,1295L480,1300L482,1302L492,1301L498,1297L512,1281L514,1271L513,1269L506,1269L502,1266L501,1250L509,1232L528,1202L531,1203L531,1210L513,1231L506,1248L507,1263L510,1264L517,1259L520,1263L520,1270L516,1280L506,1295L496,1305L486,1310L481,1310L475,1304L477,1290L474,1289L474,1287L478,1281L475,1274L479,1263L476,1253L479,1250L482,1250L480,1247L468,1249L464,1245L464,1231L469,1218L468,1213L465,1212L464,1205L498,1178Z M553,1172L553,1175L547,1185L535,1196L524,1198L518,1195L508,1204L505,1204L502,1201L500,1190L512,1174L514,1176L513,1186L509,1194L513,1194L520,1188L525,1192L529,1192L540,1186L546,1180L550,1172Z M525,1166L529,1168L525,1174L525,1177L529,1177L530,1180L535,1183L529,1187L522,1187L518,1182L519,1174Z M547,1164L548,1167L545,1173L543,1174L538,1170L538,1166Z M527,1158L523,1163L519,1162Z M552,1162L547,1163L545,1158L539,1157L534,1162L530,1161L534,1156L541,1152L551,1152Z M527,1144L527,1146L512,1161L477,1187L454,1207L441,1214L441,1207L456,1194L520,1146Z M223,1137L230,1139L231,1144L229,1151L226,1153L220,1149L220,1142Z M533,1112L535,1115L522,1125L517,1126L519,1122Z M244,1104L256,1112L256,1126L258,1128L256,1136L258,1141L252,1147L249,1145L250,1141L248,1139L246,1140L248,1142L244,1151L241,1150L242,1144L239,1145L238,1151L242,1156L246,1156L254,1152L268,1135L267,1127L262,1127L258,1120L261,1116L262,1122L271,1122L273,1129L270,1138L257,1155L246,1162L239,1162L234,1157L234,1149L242,1137L245,1129L246,1115L242,1106Z M214,1088L224,1095L231,1095L235,1098L235,1101L226,1103L218,1102L213,1095Z M529,1085L527,1092L520,1098L513,1101L510,1109L499,1115L490,1125L485,1126L482,1131L482,1135L484,1137L479,1143L477,1150L484,1148L493,1141L498,1132L502,1129L506,1131L503,1134L508,1135L497,1141L476,1158L470,1160L469,1128L513,1094Z M609,1085L601,1092L591,1108L591,1117L587,1129L582,1136L579,1136L578,1128L575,1125L570,1125L559,1131L552,1138L546,1141L540,1148L534,1148L538,1140L564,1116L605,1084Z M204,1082L209,1084L210,1087L207,1094L203,1092Z M627,1069L630,1077L626,1087L614,1101L610,1103L603,1103L599,1111L597,1123L593,1133L586,1145L571,1159L559,1164L556,1162L557,1148L554,1147L555,1143L569,1131L576,1133L575,1140L571,1146L565,1144L563,1152L568,1153L583,1142L589,1132L594,1113L601,1100L611,1089L616,1089L615,1095L622,1087L622,1083L620,1081L614,1083L609,1082L618,1074Z M184,1054L270,1106L382,1177L433,1207L432,1216L277,1117L244,1098L229,1087L222,1087L201,1072L189,1066L182,1060Z M585,1032L585,1076L551,1102L545,1105L545,1098L540,1098L529,1105L511,1121L497,1129L486,1140L485,1136L487,1130L493,1126L494,1122L500,1119L504,1114L513,1108L515,1104L527,1096L544,1078L546,1069L544,1067L539,1068L538,1073L534,1077L465,1126L464,1166L465,1170L467,1170L528,1125L537,1123L513,1145L444,1197L441,1196L441,1137L570,1040Z M581,984L586,987L592,995L595,1015L589,1021L576,1029L565,1015L565,1008L571,992Z M181,979L215,982L237,987L268,998L307,1018L357,1054L396,1091L432,1134L431,1199L186,1049L183,1046L181,1023Z M563,976L567,976L572,982L571,985L568,985L563,980Z M553,962L556,963L560,969L558,973L551,966Z M543,954L546,954L549,961L547,962L542,957Z M535,949L537,955L535,958L530,959L527,955Z M535,944L539,947L536,949Z M515,931L520,932L525,939L523,941L527,941L532,944L527,953L520,953L522,952L520,947L510,943L511,936Z M502,921L512,929L511,934L507,938L504,937L497,928L498,924Z M485,912L491,912L499,920L493,928L489,927L482,920L482,915Z M471,906L476,904L481,906L484,910L482,914L479,915L471,909Z M464,900L468,899L470,904L469,907L465,907L463,905Z M455,896L458,894L460,895L461,900L455,899Z M446,889L450,890L454,894L450,897L445,892Z M183,969L193,960L246,922L307,882L317,881L318,883L322,883L326,880L329,883L337,881L337,884L347,882L348,886L358,883L359,888L365,884L371,890L380,888L380,892L382,893L386,892L387,889L390,889L394,892L393,896L403,894L406,896L405,900L407,901L415,897L417,898L417,904L419,905L427,902L431,905L431,910L437,911L440,908L444,912L442,915L449,919L458,918L459,925L470,924L470,928L467,928L467,930L476,933L479,938L489,937L487,941L488,945L492,946L497,943L500,947L496,949L499,953L505,954L512,964L514,964L515,960L520,962L520,967L518,969L519,971L528,971L530,974L528,976L528,980L530,982L533,982L536,979L538,981L537,990L539,992L546,990L548,993L545,996L546,1000L554,1000L552,1006L559,1011L558,1014L565,1022L569,1030L440,1127L436,1127L424,1111L388,1072L350,1039L316,1015L285,998L260,987L219,975L199,973Z M330,854L329,857L324,858L320,868L320,874L318,876L310,873L313,864L320,856L326,853Z M618,774L603,784L589,799L470,880L462,882L455,879L454,876L458,872L531,824L535,823L574,796L588,788L591,788L610,775Z M630,767L625,771L619,771L627,765Z M579,737L400,859L394,858L393,854L410,844L454,812L461,805L468,802L483,790L530,759L573,734Z M608,717L610,723L604,728L601,727L600,720Z M1331,707L1335,710L1333,711L1336,712L1337,709L1340,711L1335,720L1335,726L1329,729L1321,724L1320,719L1323,709L1329,709Z M599,706L605,711L604,715L600,718L596,708Z M1354,701L1353,706L1350,705Z M570,701L570,727L556,738L515,766L388,839L386,843L436,817L446,810L449,812L390,853L382,855L375,852L378,848L373,848L369,851L362,849L545,715L566,701Z M576,695L581,699L586,698L590,703L588,707L580,702L577,705L576,723L573,722L573,698Z M637,693L641,695L647,707L645,711L640,713L637,710L634,700L635,694Z M1358,692L1361,693L1361,704L1359,709L1359,714L1361,716L1360,720L1354,722L1354,709Z M588,686L594,693L593,696L588,694L586,690Z M632,685L635,684L637,686L637,691L632,691Z M621,683L626,683L625,688L621,686Z M1366,682L1366,697L1374,703L1372,718L1361,733L1353,738L1346,738L1342,735L1340,727L1341,720L1344,715L1348,712L1353,715L1351,723L1347,723L1348,719L1345,722L1346,730L1352,732L1360,728L1370,714L1371,710L1369,705L1364,705L1362,703L1362,688Z M620,682L619,685L610,687L613,678Z M705,678L706,684L697,692L690,695L684,685L686,682L688,684L693,684Z M575,677L573,692L505,740L354,850L347,849L346,847L498,731L572,676Z M604,675L607,676L608,694L601,698L600,694L593,686L594,682Z M754,680L755,684L750,685L697,718L686,727L662,740L648,751L609,773L597,782L580,789L559,804L517,829L509,836L451,874L445,875L439,872L439,869L479,843L489,833L518,819L532,805L545,796L551,795L566,786L575,775L534,800L517,814L491,829L435,869L431,869L427,865L475,828L552,775L574,762L590,750L595,744L429,856L421,864L415,864L407,861L406,857L432,843L465,818L488,804L572,746L593,730L602,734L606,733L616,724L614,723L612,716L618,715L627,710L629,714L625,718L629,716L635,718L643,717L647,715L652,708L647,701L649,698L653,699L663,695L666,696L669,703L674,704L676,707L632,737L626,744L674,712L704,688L712,694L673,718L645,738L651,736L696,708L743,676L749,675L751,679Z M1369,672L1364,679L1365,672Z M580,670L586,680L584,684L580,677L576,677Z M653,667L658,672L650,678L650,669Z M647,668L646,686L644,688L641,687L637,676L638,672L643,668Z M747,667L747,672L731,682L726,679L725,675L729,671L738,671L744,666Z M761,664L763,664L766,668L765,673L762,675L758,672L758,667Z M714,664L718,667L720,675L718,676L721,676L724,682L719,686L716,685L715,682L716,678L714,677L712,666Z M625,664L627,667L627,672L625,672L622,667Z M687,658L686,673L684,677L679,677L679,682L685,695L679,699L676,698L669,671L672,668L679,674L677,663L683,658Z M1353,656L1358,659L1363,659L1363,661L1366,662L1358,689L1356,668L1350,657Z M805,656L805,663L801,665L799,663L800,656Z M789,655L789,663L774,673L770,673L768,665L769,660L778,661L785,655Z M613,655L612,665L610,668L593,680L589,680L583,669L610,654Z M665,653L669,658L667,660L663,658Z M757,652L759,652L762,656L761,663L757,663Z M730,648L730,657L727,666L723,669L720,663L719,654L726,648Z M1373,643L1375,647L1368,651L1369,645Z M705,643L708,644L711,649L710,652L704,649L703,645Z M1258,644L1256,650L1250,649L1250,645L1255,642Z M864,643L864,651L852,659L849,658L848,647L854,647L861,642Z M661,642L664,650L660,651L659,648Z M801,642L803,651L801,655L798,654L796,644Z M840,637L844,650L844,655L842,657L838,657L836,647L836,638Z M772,637L771,650L769,653L764,653L763,641L768,637Z M1367,636L1366,650L1362,655L1357,655L1354,651L1353,653L1350,652L1351,647L1356,641L1359,642L1357,647L1362,649L1362,637L1364,635Z M1384,635L1383,649L1373,662L1370,669L1367,669L1373,655L1378,651L1378,643L1376,641L1377,638Z M1283,639L1283,644L1276,653L1269,657L1264,655L1263,644L1265,639L1270,634L1274,635L1268,642L1268,648L1270,650L1277,648L1277,639Z M974,635L966,642L960,641L971,633Z M781,634L778,642L775,642L776,634Z M749,632L753,633L753,636L758,642L756,647L753,646L748,635Z M874,631L877,632L881,646L880,651L878,652L874,650Z M853,630L853,637L849,641L849,635Z M793,629L796,629L799,632L799,635L796,637L792,632Z M1348,629L1345,637L1339,641L1336,646L1331,646L1328,643L1326,637L1331,632L1334,639L1336,639Z M825,628L829,629L831,632L829,635L824,630Z M847,627L847,631L843,634L844,627Z M819,626L821,627L821,630L817,634L814,634L815,627Z M989,625L990,631L985,635L983,633L984,625Z M915,624L919,643L916,646L913,645L911,634L911,625Z M973,623L973,629L970,632L962,636L959,635L959,629L970,622Z M737,623L736,631L730,643L720,650L715,649L711,640L732,624Z M1345,621L1344,627L1340,631L1336,631L1333,626L1339,626L1342,621Z M948,620L951,621L951,625L954,630L953,634L956,638L955,641L951,643L948,642Z M883,619L886,620L886,622L881,630L881,621Z M1015,619L1015,627L1012,626Z M832,616L835,619L833,624L829,621L829,618Z M894,614L895,618L892,621L889,620L890,616Z M779,615L779,621L773,628L773,631L766,637L761,638L756,631L757,626L776,614Z M985,613L987,615L987,622L982,623L983,613Z M1022,612L1024,624L1026,626L1025,629L1022,630L1019,629L1018,613Z M868,611L872,613L875,619L873,624L868,618Z M1288,635L1290,637L1290,647L1299,653L1307,652L1317,642L1321,642L1320,634L1316,632L1312,632L1314,639L1311,642L1307,641L1307,632L1314,626L1320,629L1322,622L1327,617L1332,616L1335,611L1341,610L1344,613L1343,617L1335,617L1332,624L1327,626L1324,634L1324,641L1330,650L1337,651L1337,654L1340,654L1340,648L1346,642L1349,642L1347,651L1343,653L1343,655L1350,661L1355,673L1356,691L1352,699L1352,681L1350,671L1346,663L1339,658L1330,660L1322,649L1316,649L1303,658L1296,658L1291,655L1286,648L1286,639Z M994,611L997,611L998,617L993,617Z M1055,607L1058,608L1060,616L1057,624L1054,624L1053,618Z M818,608L818,612L809,628L809,643L805,644L804,635L806,631L801,629L797,620L814,608Z M1356,606L1360,610L1357,617L1356,614L1354,613L1351,615L1349,612Z M964,607L959,618L960,608Z M1128,606L1129,609L1126,612L1123,611L1123,608Z M1093,606L1093,616L1088,617L1088,607Z M969,604L975,606L974,609L968,606Z M1034,602L1033,613L1031,615L1029,612L1030,606Z M856,602L855,608L849,616L847,623L843,625L836,613L852,602Z M867,600L869,607L865,608L864,604Z M1114,600L1111,611L1103,616L1099,616L1097,607L1098,603L1103,604Z M969,599L966,606L962,603L962,600Z M941,598L945,600L948,607L947,610L942,607L940,602Z M1148,597L1147,611L1100,637L958,725L739,871L718,887L708,892L587,976L584,977L575,966L731,857L867,766L909,740L934,722L934,720L867,764L866,767L859,769L735,851L573,964L563,955L564,952L726,838L887,732L900,725L905,720L881,733L776,801L705,851L688,861L671,875L591,929L562,951L559,951L551,944L551,941L557,935L615,894L677,854L698,837L694,838L674,853L599,902L548,939L540,933L553,920L549,921L539,930L535,930L527,922L561,897L600,864L678,811L665,817L614,851L525,920L520,918L513,911L526,900L585,859L595,849L583,856L562,874L512,908L507,909L499,903L499,900L591,837L600,828L590,833L578,843L499,897L493,899L485,892L527,861L593,819L590,819L571,829L561,837L516,865L510,871L481,891L470,885L471,882L586,805L608,783L612,782L678,737L746,696L783,669L790,667L795,670L801,670L810,665L811,661L808,654L811,652L817,653L823,648L827,648L827,655L824,659L821,659L812,667L800,673L787,683L809,671L823,660L827,659L834,664L839,664L844,660L846,663L652,783L605,814L613,812L645,790L667,778L687,764L693,762L713,748L728,745L866,656L875,659L886,653L884,642L885,639L891,641L903,635L903,648L914,652L924,645L922,637L934,630L938,630L936,643L931,644L928,648L924,649L924,651L937,644L941,644L948,648L954,648L929,662L818,735L806,741L784,757L840,724L871,702L972,639L983,641L991,637L994,634L992,625L1010,618L1008,629L1012,631L1009,634L1020,636L1030,629L1030,622L1045,615L1044,623L1046,627L1053,630L1063,625L1065,622L1065,617L1062,611L1063,608L1068,609L1078,604L1078,610L1068,618L1077,615L1078,618L1087,625L1067,636L1055,645L1063,642L1113,613L1120,618L1131,615L1133,612L1132,603L1145,596Z M906,597L907,603L913,613L910,615L906,611L903,600Z M1091,595L1092,602L1088,603Z M1126,592L1126,604L1124,604L1122,602L1122,597Z M928,591L931,593L930,597L924,604L923,610L918,613L912,603L913,600Z M1159,590L1161,592L1162,602L1159,605L1156,604L1156,592Z M1335,588L1335,593L1252,637L1140,703L973,811L832,909L642,1050L637,1052L634,1056L600,1082L588,1089L585,1093L580,1094L579,1089L582,1086L587,1087L588,1082L661,1025L670,1020L681,1010L694,1002L696,998L700,997L764,950L766,946L771,945L792,930L796,925L807,919L811,914L828,904L834,897L852,887L863,879L864,876L876,870L878,867L1004,781L1014,776L1109,713L1122,707L1145,691L1166,680L1195,661L1201,659L1203,656L1208,655L1209,653L1231,642L1234,638L1240,637L1253,630L1256,626L1269,621L1313,596L1318,595L1329,588Z M941,587L941,597L938,591Z M1394,586L1392,598L1395,614L1393,622L1388,630L1384,630L1390,620L1390,608L1387,605L1389,617L1384,626L1375,633L1370,633L1368,630L1368,623L1374,615L1379,615L1378,620L1374,620L1372,622L1372,626L1378,627L1384,619L1382,610L1378,608L1367,617L1365,621L1364,635L1361,634L1360,631L1353,637L1350,637L1352,626L1358,624L1365,614L1366,605L1363,599L1360,598L1355,599L1348,604L1332,604L1322,610L1317,617L1306,621L1302,625L1300,631L1301,640L1306,645L1304,649L1297,649L1292,645L1292,636L1287,632L1279,630L1345,594L1350,596L1360,595L1367,597Z M967,586L965,591L958,598L957,607L955,610L952,609L953,606L948,599L949,594L964,585Z M1179,585L1179,592L1170,598L1166,597L1166,588L1172,588Z M1137,585L1135,594L1132,593L1133,588Z M1099,585L1097,591L1094,590L1095,585Z M977,583L985,604L980,606L977,597L974,598L974,603L971,602L969,598L976,594L974,588Z M1212,583L1211,592L1217,595L1216,598L1165,626L1056,691L945,762L785,871L701,931L602,1005L599,1004L596,991L587,981L590,976L809,828L822,817L844,805L991,707L1149,612L1158,613L1167,607L1168,601L1173,599L1175,596L1178,596L1185,602L1190,602L1198,596L1197,585L1199,583L1203,584L1207,581Z M1014,582L1019,593L1017,600L1014,596L1011,585Z M1191,575L1192,587L1194,591L1192,596L1188,594Z M1084,573L1087,576L1089,587L1085,585L1082,575Z M1224,572L1226,588L1224,590L1220,590L1220,573Z M1121,572L1121,579L1118,578Z M1049,571L1053,586L1051,588L1047,586L1046,578Z M1119,566L1118,571L1116,569Z M1413,562L1411,570L1379,587L1362,586L1409,561Z M1150,563L1154,562L1154,570L1151,569Z M1184,557L1187,558L1187,562L1189,564L1187,568L1183,562Z M1401,523L1400,546L1396,549L1393,547L1397,541L1396,535L1392,534L1387,538L1378,536L1373,539L1370,536L1394,523Z M1328,539L1231,590L1229,588L1227,580L1228,567L1310,522L1317,525Z M1026,516L1028,519L1021,522L1019,519Z M1415,506L1414,546L1411,554L1350,586L1340,588L1340,584L1343,581L1401,552L1406,548L1406,516L1351,543L1355,547L1366,546L1377,540L1382,540L1385,543L1381,548L1360,561L1344,575L1339,574L1338,577L1297,598L1197,653L1098,713L996,779L802,913L676,1006L673,1010L668,1012L592,1071L588,1071L588,1028L593,1023L752,906L871,823L1027,720L1169,634L1249,589L1265,582L1277,574L1297,565L1333,545L1337,546L1336,557L1338,559L1339,556L1342,556L1344,541L1412,505Z M1342,504L1349,513L1350,530L1342,536L1336,537L1335,521L1331,513L1334,507Z M1307,482L1312,481L1322,490L1322,493L1325,493L1327,496L1322,499L1320,494L1316,495L1312,489L1307,486Z M1259,480L1262,478L1279,487L1277,489L1272,488Z M1347,469L1348,474L1346,475L1343,473L1343,470Z M1347,462L1349,465L1346,464Z M1344,463L1342,468L1339,465Z M1344,460L1346,463L1343,462Z M1324,459L1332,462L1334,465L1333,468L1331,468L1327,463L1323,462Z M1271,460L1276,458L1282,462L1285,462L1290,466L1290,468L1293,468L1299,471L1300,474L1306,476L1308,478L1307,481L1300,481L1298,476L1293,476L1288,471L1271,464Z M1192,460L1193,458L1197,458L1203,463Z M1318,449L1320,448L1322,452L1327,453L1327,457L1318,453Z M1308,448L1311,452L1309,453L1309,459L1303,452Z M1260,438L1258,444L1254,443L1254,440Z M1271,437L1279,436L1281,437L1282,441L1275,441Z M1199,438L1205,436L1208,438L1217,438L1228,442L1233,442L1238,446L1260,451L1262,454L1271,456L1271,460L1264,461L1258,457L1250,456L1248,453L1230,450L1224,446L1212,445L1211,443L1200,442Z M1123,437L1121,442L1115,447L1119,448L1118,451L1114,453L1110,452L1112,442L1120,435Z M1181,438L1188,434L1192,434L1198,438L1190,441Z M1165,436L1171,433L1176,433L1179,437L1174,439Z M1163,435L1154,438L1150,437L1151,434L1160,432Z M1139,434L1146,435L1143,437Z M1199,427L1206,426L1213,430L1206,431Z M1269,427L1271,425L1312,432L1354,448L1376,463L1394,481L1395,485L1392,488L1357,505L1345,493L1324,477L1285,455L1268,448L1268,445L1275,448L1283,448L1281,450L1305,458L1309,462L1319,457L1321,459L1319,466L1314,465L1314,467L1325,474L1332,474L1336,470L1340,476L1339,482L1342,485L1346,485L1351,481L1354,484L1353,491L1357,495L1359,495L1359,490L1357,488L1359,483L1355,478L1359,473L1362,474L1362,482L1373,488L1378,488L1379,484L1378,480L1372,480L1370,477L1374,477L1374,474L1372,472L1369,473L1365,468L1363,468L1361,466L1362,463L1358,459L1348,458L1347,452L1342,450L1336,452L1334,456L1329,454L1333,448L1332,444L1323,442L1316,448L1314,445L1306,444L1308,436L1296,434L1294,432L1290,435L1285,435L1276,431L1271,432Z M1254,425L1267,428L1263,429L1259,433L1256,432Z M1230,426L1232,424L1240,428L1230,429Z M1282,421L1284,418L1305,421L1327,426L1358,438L1380,451L1395,463L1413,483L1416,492L1410,498L1394,507L1388,508L1365,521L1354,524L1355,511L1367,507L1405,488L1400,478L1381,459L1365,448L1342,436L1314,427Z M1175,371L1178,375Z M1011,363L1009,365L1009,372L1005,374L1005,378L997,380L1006,382L1009,389L1009,396L1011,395L1013,384L1016,381L1024,381L1024,379L1015,377Z M517,315L515,315L512,319L509,327L505,326L505,323L502,320L499,320L496,323L496,328L500,332L500,338L510,340L517,338L521,334L519,328L512,325Z M509,328L516,329L517,335L515,337L509,333Z M742,272L738,273L734,277L734,287L729,295L722,301L720,307L713,316L699,328L696,327L697,322L702,319L703,315L701,307L697,304L688,303L685,306L685,316L692,322L692,334L684,340L678,341L657,357L653,354L648,355L643,364L627,373L615,373L610,375L607,373L601,373L597,379L590,381L585,380L586,375L592,374L599,369L601,358L597,351L590,350L588,347L583,347L575,358L576,367L582,373L581,381L577,386L571,388L565,386L560,381L550,381L545,386L543,393L530,392L522,401L516,401L514,399L513,392L509,390L506,384L496,386L491,382L489,382L492,384L492,389L494,391L493,396L489,401L482,402L478,399L478,394L476,391L478,391L478,389L474,387L480,381L482,373L494,371L498,364L495,358L489,356L488,354L483,358L480,357L480,347L476,342L464,341L459,347L459,355L463,362L459,365L456,372L442,371L437,374L435,379L435,386L443,396L439,402L439,413L435,416L430,414L427,417L425,427L419,434L413,436L414,440L410,444L403,447L399,446L397,450L393,452L390,449L393,444L394,437L389,426L378,425L369,431L365,425L359,422L353,422L348,425L345,431L347,445L341,448L337,453L337,462L341,468L332,480L328,481L328,473L325,469L320,468L314,472L316,481L325,486L325,491L320,508L318,510L309,511L310,516L308,517L308,520L311,525L311,529L307,540L280,559L261,568L260,562L256,560L259,548L265,540L266,529L276,508L276,503L261,536L244,585L244,590L234,624L224,691L224,780L233,839L244,881L246,879L239,858L239,851L236,843L230,810L225,762L225,709L230,659L233,649L236,625L244,595L249,592L257,595L262,590L273,589L271,585L265,586L260,584L272,576L286,572L301,558L312,554L315,549L322,546L326,547L326,551L336,559L344,557L350,550L355,550L351,541L354,537L358,537L358,529L362,529L370,535L372,544L366,547L366,551L358,551L360,554L367,554L372,551L375,546L375,540L371,533L372,530L380,529L384,525L388,524L400,527L409,532L412,540L408,544L407,553L419,564L427,564L429,561L433,560L436,562L445,562L449,557L450,548L461,552L465,555L467,560L476,560L485,568L486,578L479,586L480,593L483,595L491,595L496,591L497,586L495,579L489,575L491,572L507,584L512,591L515,591L518,594L519,600L517,604L521,611L524,612L528,610L530,606L524,599L523,594L526,594L531,599L533,599L534,594L537,594L537,600L540,600L542,596L541,592L533,591L528,593L512,585L510,578L502,577L484,562L479,560L480,557L483,557L488,561L493,561L501,555L502,543L498,539L490,539L484,544L481,554L471,556L465,554L465,548L458,547L455,544L457,535L456,529L458,528L457,524L452,524L452,517L444,514L446,509L451,505L455,506L457,511L461,511L463,514L461,517L462,524L464,524L467,528L466,532L460,535L460,537L464,537L469,533L470,526L464,522L463,519L465,516L465,511L460,508L459,504L451,502L441,510L439,515L433,515L428,518L426,516L420,516L411,524L408,523L407,518L404,517L399,522L377,519L376,510L370,506L370,503L400,483L400,480L396,476L402,464L407,458L415,455L415,450L417,448L426,446L427,439L432,434L438,432L439,428L437,426L443,421L453,423L463,418L469,424L480,424L484,421L486,416L490,414L490,408L494,411L496,416L494,417L494,420L499,419L500,424L503,426L503,432L500,435L490,437L490,433L487,434L488,438L491,441L494,441L504,435L514,436L518,432L518,425L512,419L511,409L515,408L520,412L519,418L522,416L521,407L526,408L529,412L531,412L527,404L528,398L533,394L538,394L543,398L544,401L542,406L544,409L542,413L533,414L535,417L543,416L543,422L548,425L549,433L544,437L533,435L540,441L548,437L555,440L551,433L551,427L554,425L557,426L564,422L568,426L569,434L562,441L558,441L558,443L564,443L571,437L571,424L577,421L580,416L580,407L578,403L567,398L567,395L570,392L577,391L594,383L603,385L607,380L617,375L629,375L640,381L640,390L644,397L653,399L661,398L662,395L669,389L666,377L659,371L653,370L641,376L635,372L649,366L673,351L683,349L685,343L698,333L708,331L714,336L716,327L721,328L722,333L718,337L719,339L722,339L725,336L725,328L723,326L712,325L707,329L704,328L704,326L717,316L723,309L732,307L737,313L740,313L739,306L741,300L747,303L746,310L743,315L750,312L752,306L747,299L737,299L732,303L728,302L737,287L743,284L744,274Z M481,587L484,583L492,585L495,584L495,587L491,592L482,590Z M444,547L446,550L445,558L437,560L434,557L435,550L440,549L441,546Z M494,543L498,545L499,554L492,559L489,557L490,551L487,548L487,544Z M414,541L420,541L420,548L425,549L426,553L431,552L430,558L427,561L420,561L417,553L412,554L410,552L410,546Z M444,530L449,530L453,534L454,539L449,545L445,545L441,541L443,539L442,536L444,535L442,532Z M416,522L422,522L426,526L425,530L422,532L421,538L415,537L412,532L413,525Z M434,517L440,518L443,522L442,528L438,531L433,527L431,529L428,527L430,521Z M325,512L331,512L336,517L336,533L339,534L341,538L345,538L345,540L348,541L347,551L342,555L333,553L328,547L329,539L332,536L332,533L325,533L318,527L320,521L319,518Z M362,507L372,509L375,516L374,522L370,527L362,528L358,526L357,522L359,519L355,519L356,512Z M348,499L353,503L354,511L353,513L342,514L340,519L335,512L335,504L339,500L343,501Z M318,473L320,471L324,471L324,477L317,477Z M384,477L384,480L380,485L369,493L353,499L350,496L342,494L337,497L332,507L328,508L329,503L327,499L330,489L334,483L348,470L352,471L355,481L363,486L370,486L375,480L366,483L363,480L358,480L356,478L356,469L361,464L364,467L366,465L370,468L373,467L375,477L378,475Z M381,452L389,453L395,458L397,463L396,466L392,466L392,473L382,474L376,469L376,463L380,462L381,457L379,454Z M347,447L356,449L357,454L355,457L356,459L361,460L354,467L346,467L339,458L339,454Z M379,428L385,429L391,438L390,444L383,450L379,445L370,439L372,433Z M359,425L367,433L366,439L360,441L356,447L350,442L348,431L349,429L354,429L355,426Z M511,421L516,428L512,433L507,432L504,426L505,423Z M563,404L568,402L576,405L576,412L578,416L575,420L567,421L565,419L566,412Z M465,406L467,405L469,407L473,407L476,402L481,404L485,411L483,419L480,422L469,421L464,414Z M446,398L451,397L457,405L462,407L461,414L456,419L446,418L443,414L441,404Z M501,387L501,393L509,393L512,397L513,403L509,407L508,405L499,404L495,406L494,404L496,392Z M547,389L552,385L555,387L560,385L564,390L564,398L562,402L559,402L556,399L548,401L546,399Z M443,374L452,374L457,380L456,385L453,386L453,390L450,395L442,392L438,386L439,380L441,380L441,376Z M653,373L660,374L663,378L661,379L662,386L665,389L656,390L657,393L655,397L647,395L643,390Z M465,364L475,366L479,371L479,378L473,384L471,380L465,379L460,381L458,377L459,369Z M486,359L490,359L492,361L493,367L490,370L482,367Z M581,352L585,352L585,354L592,354L592,356L597,356L598,365L595,369L586,365L584,366L578,364L579,354Z M462,347L468,346L469,344L474,344L478,348L479,354L475,355L475,353L472,353L469,356L462,356Z M687,314L688,309L691,306L701,310L695,316Z M1160,354L1114,309L1080,283L1028,250L968,222L902,201L846,190L799,186L730,187L666,196L606,211L569,224L544,235L493,262L462,282L431,305L395,337L354,381L332,409L324,423L366,371L404,332L439,302L487,268L532,243L560,230L592,218L649,202L722,190L789,188L843,192L897,202L954,219L958,222L995,236L1054,268L1102,302L1158,354Z M1212,387L1180,348L1147,315L1112,285L1070,255L1044,239L990,212L936,192L890,180L842,172L790,168L738,169L696,173L652,181L608,192L606,194L567,206L518,228L474,253L428,285L399,309L359,348L332,379L300,423L267,479L251,513L234,557L233,565L228,576L219,609L211,652L206,695L205,759L208,796L218,855L228,891L230,892L232,888L220,844L211,784L209,761L209,709L214,659L224,606L236,564L254,517L274,475L300,431L323,398L364,349L400,314L450,274L477,256L523,230L568,210L606,197L643,187L705,176L770,172L802,173L849,177L897,186L934,196L993,218L1028,235L1065,257L1090,274L1128,304L1181,356L1205,386L1210,390Z" fill="#e1c8ac" fill-rule="evenodd" stroke="none"/></svg>